<svg xmlns="http://www.w3.org/2000/svg" width="64" height="64" viewBox="0 0 64 64">
  <!-- Firewall Shield Background -->
  <path d="M32 4 L54 14 L54 34 C54 48 32 60 32 60 C32 60 10 48 10 34 L10 14 Z" fill="#2c3e50" stroke="#34495e" stroke-width="2"/>
  
  <!-- Firewall Pattern -->
  <rect x="16" y="18" width="32" height="3" fill="#e74c3c"/>
  <rect x="16" y="24" width="32" height="3" fill="#e74c3c"/>
  <rect x="16" y="30" width="32" height="3" fill="#e74c3c"/>
  <rect x="16" y="36" width="32" height="3" fill="#e74c3c"/>
  <rect x="16" y="42" width="32" height="3" fill="#e74c3c"/>
  
  <!-- Vertical Lines -->
  <rect x="20" y="16" width="2" height="32" fill="#e74c3c"/>
  <rect x="26" y="16" width="2" height="32" fill="#e74c3c"/>
  <rect x="32" y="16" width="2" height="32" fill="#e74c3c"/>
  <rect x="38" y="16" width="2" height="32" fill="#e74c3c"/>
  <rect x="44" y="16" width="2" height="32" fill="#e74c3c"/>
  
  <!-- Shield Highlight -->
  <path d="M32 8 L50 16 L50 32 C50 44 32 54 32 54" fill="none" stroke="#ecf0f1" stroke-width="2" opacity="0.7"/>
  
  <!-- Lock Icon -->
  <circle cx="32" cy="28" r="3" fill="#f39c12"/>
  <rect x="30" y="30" width="4" height="6" fill="#f39c12" rx="1"/>
</svg>